<svg xmlns="http://www.w3.org/2000/svg" viewBox="-8 -8 144 144"><defs><linearGradient id="metal" x1="0" y1="0" x2="1" y2="1"><stop stop-color="#c9ff85"/><stop offset=".4" stop-color="#73ed45"/><stop offset=".65" stop-color="#c9ff85"/><stop offset="1" stop-color="#237c65"/></linearGradient><radialGradient id="enamel"><stop stop-color="#237c65"/><stop offset="1" stop-color="#100e24"/></radialGradient></defs><circle cx="64" cy="64" r="49" fill="none" stroke="#237c65" stroke-width="7"/><circle cx="64" cy="64" r="49" fill="none" stroke="url(#metal)" stroke-width="3"/><circle cx="64" cy="64" r="54" fill="none" stroke="#73ed45" stroke-width="1" stroke-dasharray="2 5"/><g transform="rotate(0 64 64)"><path d="M64 2 70.5 12 64 22 57.5 12Z" fill="#73ed45" stroke="#fff6d8" stroke-width="1.5"/><path d="M64 2v20l-6.5 -10Z" fill="#fff" opacity=".3"/></g><g transform="rotate(60 64 64)"><path d="M64 2 70.5 12 64 22 57.5 12Z" fill="#73ed45" stroke="#fff6d8" stroke-width="1.5"/><path d="M64 2v20l-6.5 -10Z" fill="#fff" opacity=".3"/></g><g transform="rotate(120 64 64)"><path d="M64 2 70.5 12 64 22 57.5 12Z" fill="#73ed45" stroke="#fff6d8" stroke-width="1.5"/><path d="M64 2v20l-6.5 -10Z" fill="#fff" opacity=".3"/></g><g transform="rotate(180 64 64)"><path d="M64 2 70.5 12 64 22 57.5 12Z" fill="#73ed45" stroke="#fff6d8" stroke-width="1.5"/><path d="M64 2v20l-6.5 -10Z" fill="#fff" opacity=".3"/></g><g transform="rotate(240 64 64)"><path d="M64 2 70.5 12 64 22 57.5 12Z" fill="#73ed45" stroke="#fff6d8" stroke-width="1.5"/><path d="M64 2v20l-6.5 -10Z" fill="#fff" opacity=".3"/></g><g transform="rotate(300 64 64)"><path d="M64 2 70.5 12 64 22 57.5 12Z" fill="#73ed45" stroke="#fff6d8" stroke-width="1.5"/><path d="M64 2v20l-6.5 -10Z" fill="#fff" opacity=".3"/></g><path d="M15 13v10m-5 -5h10" stroke="#c9ff85" stroke-width="2"/><rect x="13" y="16" width="4" height="4" fill="#fff"/><path d="M110 20v10m-5 -5h10" stroke="#c9ff85" stroke-width="2"/><rect x="108" y="23" width="4" height="4" fill="#fff"/><path d="M7 83v8m-4 -4h8" stroke="#c9ff85" stroke-width="2"/><rect x="5" y="85" width="4" height="4" fill="#fff"/><path d="M108 101v10m-5 -5h10" stroke="#c9ff85" stroke-width="2"/><rect x="106" y="104" width="4" height="4" fill="#fff"/><path d="M87 3v6m-3 -3h6" stroke="#c9ff85" stroke-width="2"/><rect x="85" y="4" width="4" height="4" fill="#fff"/></svg>