<svg xmlns="http://www.w3.org/2000/svg" viewBox="-8 -8 144 144"><defs><linearGradient id="metal" x1="0" y1="0" x2="1" y2="1"><stop stop-color="#f2dfff"/><stop offset=".4" stop-color="#c18aff"/><stop offset=".65" stop-color="#f2dfff"/><stop offset="1" stop-color="#5e55e5"/></linearGradient><radialGradient id="enamel"><stop stop-color="#5e55e5"/><stop offset="1" stop-color="#100e24"/></radialGradient></defs><circle cx="64" cy="64" r="49" fill="none" stroke="#5e55e5" stroke-width="7"/><circle cx="64" cy="64" r="49" fill="none" stroke="url(#metal)" stroke-width="3"/><circle cx="64" cy="64" r="54" fill="none" stroke="#c18aff" stroke-width="1" stroke-dasharray="2 5"/><path d="m43 35-5-20 14 10 12-18 12 18 14-10-5 20Z" fill="url(#metal)" stroke="#fff0ac" stroke-width="2"/><path d="M43 36h42v5H43z" fill="#b26b26" stroke="#fff0ac"/><path d="M64 17 68.55 24 64 31 59.45 24Z" fill="#dc78ff" stroke="#fff6d8" stroke-width="1.5"/><path d="M64 17v14l-4.55 -7Z" fill="#fff" opacity=".3"/><path d="M15 54 22.8 66 15 78 7.199999999999999 66Z" fill="#c18aff" stroke="#fff6d8" stroke-width="1.5"/><path d="M15 54v24l-7.800000000000001 -12Z" fill="#fff" opacity=".3"/><path d="M113 54 120.8 66 113 78 105.2 66Z" fill="#c18aff" stroke="#fff6d8" stroke-width="1.5"/><path d="M113 54v24l-7.800000000000001 -12Z" fill="#fff" opacity=".3"/><path d="M64 98 72.45 111 64 124 55.55 111Z" fill="#c18aff" stroke="#fff6d8" stroke-width="1.5"/><path d="M64 98v26l-8.450000000000001 -13Z" fill="#fff" opacity=".3"/><path d="M15 13v10m-5 -5h10" stroke="#f2dfff" stroke-width="2"/><rect x="13" y="16" width="4" height="4" fill="#fff"/><path d="M110 20v10m-5 -5h10" stroke="#f2dfff" stroke-width="2"/><rect x="108" y="23" width="4" height="4" fill="#fff"/><path d="M7 83v8m-4 -4h8" stroke="#f2dfff" stroke-width="2"/><rect x="5" y="85" width="4" height="4" fill="#fff"/><path d="M108 101v10m-5 -5h10" stroke="#f2dfff" stroke-width="2"/><rect x="106" y="104" width="4" height="4" fill="#fff"/><path d="M87 3v6m-3 -3h6" stroke="#f2dfff" stroke-width="2"/><rect x="85" y="4" width="4" height="4" fill="#fff"/></svg>