<svg xmlns="http://www.w3.org/2000/svg" viewBox="0 0 128 128"><defs><linearGradient id="metal" x1="0" y1="0" x2="1" y2="1"><stop stop-color="#e9ffff"/><stop offset=".4" stop-color="#7ee5ff"/><stop offset=".65" stop-color="#e9ffff"/><stop offset="1" stop-color="#4185df"/></linearGradient><radialGradient id="enamel"><stop stop-color="#4185df"/><stop offset="1" stop-color="#100e24"/></radialGradient></defs><path d="m64 9 40 17 12 40-21 36-31 17-31-17L12 66l12-40Z" fill="#100f21" stroke="#4185df" stroke-width="5"/><path d="m64 14 37 16 10 36-19 33-28 15-28-15-19-33 10-36Z" fill="url(#enamel)" stroke="url(#metal)" stroke-width="3"/><circle cx="64" cy="64" r="42" fill="none" stroke="#7ee5ff" stroke-dasharray="2 5" opacity=".5"/><path d="m48 97 23-60" stroke="#ffdca7" stroke-width="6"/><path d="m60 34 15-12 16 14-16 18Z" fill="#cb8eff" stroke="#ffe6b3" stroke-width="3"/><path d="m75 24-7 12 8 14 6-15Z" fill="#fff5ff"/><path d="M22 18v14m-7 -7h14" stroke="#e9ffff" stroke-width="2"/><rect x="20" y="23" width="4" height="4" fill="#fff"/><path d="M105 84v14m-7 -7h14" stroke="#e9ffff" stroke-width="2"/><rect x="103" y="89" width="4" height="4" fill="#fff"/><path d="M64 106 67.9 112 64 118 60.1 112Z" fill="#7ee5ff" stroke="#fff6d8" stroke-width="1.5"/><path d="M64 106v12l-3.9000000000000004 -6Z" fill="#fff" opacity=".3"/></svg>