<svg xmlns="http://www.w3.org/2000/svg" viewBox="0 0 128 128"><defs><linearGradient id="gold" x2="1" y2="1"><stop stop-color="#fff9d2"/><stop offset=".4" stop-color="#ffc76b"/><stop offset=".7" stop-color="#ba9eff"/><stop offset="1" stop-color="#8cecff"/></linearGradient></defs><path d="M64 10 99 31 114 64 96 98 64 118 32 98 14 64 29 31Z" fill="#13182e" stroke="url(#gold)" stroke-width="4"/><path d="M26 73Q14 38 44 22M102 73q12-35-18-51M28 82l14 16m58-16-14 16" fill="none" stroke="#f2cd89" stroke-width="3"/><path d="M63 64c-33-41-44 29-13 12l27-24c31-18 29 52-11 15" fill="none" stroke="url(#gold)" stroke-width="9"/><path d="m48 24 7 5 9-16 9 16 7-5-4 14H52Z" fill="url(#gold)"/><path d="m64 96 7 9-7 10-7-10Z" fill="#b6eaff" stroke="#fff0bd"/><path d="M14 23v12m-6-6h12m92 65v14m-7-7h14" stroke="#ffebba" stroke-width="3"/></svg>
