<svg xmlns="http://www.w3.org/2000/svg" viewBox="0 0 96 96"><defs><linearGradient id="g" x2="1" y2="1"><stop stop-color="#fff3c7"/><stop offset=".4" stop-color="#ffda81"/><stop offset="1" stop-color="#655098"/></linearGradient></defs><path d="m48 8 12 25 28 4-20 20 5 28-25-13-25 13 5-28L8 37l28-4Z" fill="url(#g)" stroke="#fff0bb" stroke-width="3"/><path d="m48 25 8 17 19 3-14 13 3 18-16-9-16 9 3-18-14-13 19-3Z" fill="#a777e9"/><path d="m48 34 5 14 14 1-11 9 2 13-10-7-10 7 2-13-11-9 14-1Z" fill="#f0dbff"/><path d="M83 9v10m-5-5h10M11 75v8m-4-4h8" stroke="#e1c9ff" stroke-width="2" stroke-linecap="round"/></svg>
